<svg width="96" height="96" viewBox="0 0 96 96" fill="none" xmlns="http://www.w3.org/2000/svg">
<rect x="53.7512" y="37.5002" width="39" height="4.99963" transform="rotate(90.0023 53.7512 37.5002)" fill="white" stroke="white"/>
<rect x="54.7502" y="37.5" width="27.5248" height="5" fill="white" stroke="white"/>
<rect x="54.7502" y="52.5" width="27.5248" height="5" fill="white" stroke="white"/>
<mask id="path-4-inside-1_96_2" fill="white">
<path d="M82.0959 58C85.5183 58 88.8005 56.8938 91.2205 54.9246C93.6405 52.9555 95 50.2848 95 47.5C95 44.7152 93.6405 42.0445 91.2205 40.0754C88.8005 38.1063 85.5183 37 82.0959 37L82.0959 42.9963C83.5639 42.9963 84.9717 43.4708 86.0097 44.3154C87.0477 45.16 87.6308 46.3055 87.6308 47.5C87.6308 48.6945 87.0477 49.84 86.0097 50.6846C84.9717 51.5292 83.5639 52.0037 82.0959 52.0037V58Z"/>
</mask>
<path d="M82.0959 58C85.5183 58 88.8005 56.8938 91.2205 54.9246C93.6405 52.9555 95 50.2848 95 47.5C95 44.7152 93.6405 42.0445 91.2205 40.0754C88.8005 38.1063 85.5183 37 82.0959 37L82.0959 42.9963C83.5639 42.9963 84.9717 43.4708 86.0097 44.3154C87.0477 45.16 87.6308 46.3055 87.6308 47.5C87.6308 48.6945 87.0477 49.84 86.0097 50.6846C84.9717 51.5292 83.5639 52.0037 82.0959 52.0037V58Z" stroke="white" stroke-width="12" mask="url(#path-4-inside-1_96_2)"/>
<rect x="53.7512" y="37.5002" width="39" height="4.99963" transform="rotate(90.0023 53.7512 37.5002)" fill="white" stroke="white"/>
<rect x="54.7502" y="37.5" width="27.5248" height="5" fill="white" stroke="white"/>
<rect x="54.7502" y="52.5" width="27.5248" height="5" fill="white" stroke="white"/>
<mask id="path-8-inside-2_96_2" fill="white">
<path d="M82.0959 58C85.5183 58 88.8005 56.8938 91.2205 54.9246C93.6405 52.9555 95 50.2848 95 47.5C95 44.7152 93.6405 42.0445 91.2205 40.0754C88.8005 38.1063 85.5183 37 82.0959 37L82.0959 42.9963C83.5639 42.9963 84.9717 43.4708 86.0097 44.3154C87.0477 45.16 87.6308 46.3055 87.6308 47.5C87.6308 48.6945 87.0477 49.84 86.0097 50.6846C84.9717 51.5292 83.5639 52.0037 82.0959 52.0037V58Z"/>
</mask>
<path d="M82.0959 58C85.5183 58 88.8005 56.8938 91.2205 54.9246C93.6405 52.9555 95 50.2848 95 47.5C95 44.7152 93.6405 42.0445 91.2205 40.0754C88.8005 38.1063 85.5183 37 82.0959 37L82.0959 42.9963C83.5639 42.9963 84.9717 43.4708 86.0097 44.3154C87.0477 45.16 87.6308 46.3055 87.6308 47.5C87.6308 48.6945 87.0477 49.84 86.0097 50.6846C84.9717 51.5292 83.5639 52.0037 82.0959 52.0037V58Z" stroke="white" stroke-width="12" mask="url(#path-8-inside-2_96_2)"/>
<rect x="42.2488" y="57.5" width="39" height="4.99963" transform="rotate(-89.9977 42.2488 57.5)" fill="white" stroke="white"/>
<rect x="41.2498" y="57.5003" width="27.5248" height="5" transform="rotate(180 41.2498 57.5003)" fill="white" stroke="white"/>
<rect x="41.2498" y="42.5003" width="27.5248" height="5" transform="rotate(180 41.2498 42.5003)" fill="white" stroke="white"/>
<mask id="path-12-inside-3_96_2" fill="white">
<path d="M13.9041 37.0003C10.4817 37.0003 7.19951 38.1065 4.77952 40.0756C2.35953 42.0448 1 44.7155 1 47.5003C1 50.285 2.35953 52.9558 4.77952 54.9249C7.1995 56.894 10.4817 58.0003 13.9041 58.0003L13.9041 52.004C12.4361 52.004 11.0283 51.5295 9.99032 50.6849C8.95232 49.8403 8.36918 48.6947 8.36918 47.5003C8.36918 46.3058 8.95232 45.1603 9.99032 44.3156C11.0283 43.471 12.4361 42.9965 13.9041 42.9965L13.9041 37.0003Z"/>
</mask>
<path d="M13.9041 37.0003C10.4817 37.0003 7.19951 38.1065 4.77952 40.0756C2.35953 42.0448 1 44.7155 1 47.5003C1 50.285 2.35953 52.9558 4.77952 54.9249C7.1995 56.894 10.4817 58.0003 13.9041 58.0003L13.9041 52.004C12.4361 52.004 11.0283 51.5295 9.99032 50.6849C8.95232 49.8403 8.36918 48.6947 8.36918 47.5003C8.36918 46.3058 8.95232 45.1603 9.99032 44.3156C11.0283 43.471 12.4361 42.9965 13.9041 42.9965L13.9041 37.0003Z" stroke="white" stroke-width="12" mask="url(#path-12-inside-3_96_2)"/>
<rect x="42.2488" y="57.5" width="39" height="4.99963" transform="rotate(-89.9977 42.2488 57.5)" fill="white" stroke="white"/>
<rect x="41.2498" y="57.5003" width="27.5248" height="5" transform="rotate(180 41.2498 57.5003)" fill="white" stroke="white"/>
<rect x="41.2498" y="42.5003" width="27.5248" height="5" transform="rotate(180 41.2498 42.5003)" fill="white" stroke="white"/>
<mask id="path-16-inside-4_96_2" fill="white">
<path d="M13.9041 37.0003C10.4817 37.0003 7.19951 38.1065 4.77952 40.0756C2.35953 42.0448 1 44.7155 1 47.5003C1 50.285 2.35953 52.9558 4.77952 54.9249C7.1995 56.894 10.4817 58.0003 13.9041 58.0003L13.9041 52.004C12.4361 52.004 11.0283 51.5295 9.99032 50.6849C8.95232 49.8403 8.36918 48.6947 8.36918 47.5003C8.36918 46.3058 8.95232 45.1603 9.99032 44.3156C11.0283 43.471 12.4361 42.9965 13.9041 42.9965L13.9041 37.0003Z"/>
</mask>
<path d="M13.9041 37.0003C10.4817 37.0003 7.19951 38.1065 4.77952 40.0756C2.35953 42.0448 1 44.7155 1 47.5003C1 50.285 2.35953 52.9558 4.77952 54.9249C7.1995 56.894 10.4817 58.0003 13.9041 58.0003L13.9041 52.004C12.4361 52.004 11.0283 51.5295 9.99032 50.6849C8.95232 49.8403 8.36918 48.6947 8.36918 47.5003C8.36918 46.3058 8.95232 45.1603 9.99032 44.3156C11.0283 43.471 12.4361 42.9965 13.9041 42.9965L13.9041 37.0003Z" stroke="white" stroke-width="12" mask="url(#path-16-inside-4_96_2)"/>
</svg>
